<svg width="36" height="55" viewBox="0 0 36 55" fill="none" xmlns="http://www.w3.org/2000/svg">
<path d="M0 9.62183C0.00287835 7.07084 1.01753 4.62517 2.82135 2.82135C4.62517 1.01753 7.07084 0.00287835 9.62183 0H15.9531V17.9531H0V9.62183ZM35.3438 36.8002C35.3385 41.4597 33.4852 45.9269 30.1904 49.2217C26.8956 52.5165 22.4284 54.3698 17.7689 54.375H17.5749C12.9153 54.3698 8.44811 52.5165 5.15332 49.2217C1.85852 45.9269 0.0052171 41.4597 0 36.8002V20.3906H35.3438V36.8002ZM25.7219 0C28.2729 0.00287835 30.7186 1.01753 32.5224 2.82135C34.3262 4.62517 35.3409 7.07084 35.3438 9.62183V17.9531H18.3906V0H25.7219Z" fill="#A5A5A5" fill-opacity="0.5"/>
<path d="M32.5224 2.82135C30.7186 1.01753 28.2729 0.00287835 25.7219 0H18.3906V17.9531H35.3438V9.62183C35.3409 7.07084 34.3262 4.62516 32.5224 2.82135Z" fill="white"/>
</svg>
