<svg width="57" height="61" viewBox="0 0 57 61" fill="none" xmlns="http://www.w3.org/2000/svg">
<path d="M0.609375 16.6235V2.77058H4.76525V8.38101C7.9976 5.74896 11.6114 3.69411 15.6065 2.21647C19.6017 0.738822 23.8379 0 28.3152 0C35.9805 0 42.2605 1.76671 47.1552 5.30013C52.0499 8.83354 55.0051 12.608 56.021 16.6235H51.6574C50.5953 13.8529 48.0898 11.0823 44.1408 8.31175C40.1918 5.54117 34.9166 4.15587 28.3152 4.15587C24.1132 4.15587 20.1531 4.8947 16.4349 6.37234C12.7168 7.84998 9.38104 9.88175 6.4276 12.4676H14.4623V16.6235H0.609375ZM23.1204 60.9528L8.92112 46.0609L12.2458 42.5977L22.774 45.022V15.2382C22.774 14.0838 23.1785 13.1021 23.9876 12.2931C24.7966 11.4841 25.7773 11.0805 26.9299 11.0823C28.0843 11.0823 29.066 11.4868 29.875 12.2958C30.684 13.1049 31.0876 14.0856 31.0858 15.2382V31.8617H34.9646L50.9647 39.8964L47.9863 60.9528H23.1204Z" fill="white"/>
</svg>
