<svg width="43" height="62" viewBox="0 0 43 62" fill="none" xmlns="http://www.w3.org/2000/svg">
<path d="M19.3134 1.23862C22.8916 1.32142 26.2938 2.67834 28.7737 5.01171C31.2536 7.34509 32.6087 10.4644 32.5417 13.6853L28.0428 13.5859C28.0903 11.4379 27.1878 9.35695 25.534 7.80082C23.8801 6.24468 21.6103 5.34084 19.224 5.28811C16.8376 5.23539 14.5301 6.03812 12.8092 7.51969C11.0882 9.00127 10.0947 11.0403 10.0472 13.1883L5.54834 13.0889C5.62366 9.86819 7.11519 6.8118 9.69573 4.59023C12.2763 2.36865 15.7351 1.16331 19.3134 1.23862Z" fill="white"/>
<path d="M14.8086 61.0356L0.609375 46.1437L3.93407 42.6805L14.4623 45.1047V15.321C14.4623 14.1666 14.8668 13.1849 15.6758 12.3759C16.4848 11.5668 17.4656 11.1633 18.6182 11.1651C19.7726 11.1651 20.7543 11.5696 21.5633 12.3786C22.3723 13.1876 22.7759 14.1684 22.774 15.321V31.9445H26.6528L42.653 39.9792L39.6746 61.0356H14.8086Z" fill="white"/>
</svg>
